<svg width="33" height="32" viewBox="0 0 33 32" fill="none" xmlns="http://www.w3.org/2000/svg">
<g id="high-speed-train-svgrepo-com 1" clip-path="url(#clip0_1_175)">
<g id="Group">
<path id="Vector" d="M32.25 17.5891C32.25 17.946 31.8779 18.3705 30.6209 18.7685C30.2411 18.7602 29.846 18.7549 29.4327 18.7491C27.6002 18.7285 25.4632 18.6791 23.1738 18.6697C20.8833 18.6579 18.4406 18.6474 15.9966 18.635C15.8608 18.635 15.7244 18.6362 15.5886 18.6362C15.7215 18.3869 15.8161 18.1082 15.9284 17.8219C16.4411 15.7648 16.2406 13.9123 15.1183 12.0751C14.9813 11.8499 14.8149 11.6677 14.6726 11.5072C14.6609 11.4925 14.6503 11.4825 14.6385 11.4684H15.6762C16.0877 11.4684 16.8773 11.5854 17.902 11.7929C17.6492 12.0539 17.5046 12.3508 17.5046 12.6665C17.5046 13.7013 19.0355 14.5402 20.9227 14.5402C22.3361 14.5402 23.5489 14.0711 24.0704 13.4014C24.3391 13.4843 24.6089 13.569 24.8776 13.656C29.5621 15.1681 32.2488 16.6014 32.25 17.5891ZM1.31294 18.7691C1.01546 17.9836 1.01546 16.9107 1.01546 15.7584C1.01546 13.4555 1.01546 11.4672 3.39003 11.4672H14.4204C14.4533 11.5189 14.4863 11.5689 14.5192 11.6265C14.628 11.8029 14.7508 11.9969 14.8602 12.228C14.9178 12.3408 14.9772 12.4584 15.0389 12.5795C15.7226 13.9206 16.6221 17.5174 15.0183 18.5339C14.2523 19.0189 12.759 18.6238 11.9053 18.6227C10.8765 18.6209 9.84647 18.6621 8.81763 18.6668C6.52771 18.6785 4.39066 18.7267 2.55814 18.7467C2.12426 18.7549 1.71037 18.762 1.31294 18.7691ZM11.5355 14.5396C11.5355 15.117 12.0035 15.5855 12.5814 15.5855H12.8854C13.4627 15.5855 13.9313 15.1175 13.9313 14.5396C13.9313 13.9623 13.4633 13.4937 12.8854 13.4937H12.5814C12.0035 13.4937 11.5355 13.9623 11.5355 14.5396ZM8.6101 14.5396C8.6101 15.117 9.07807 15.5855 9.6554 15.5855H9.95994C10.5367 15.5855 11.0058 15.1175 11.0058 14.5396C11.0058 13.9623 10.5373 13.4937 9.95994 13.4937H9.6554C9.07866 13.4937 8.6101 13.9623 8.6101 14.5396ZM5.68406 14.5396C5.68406 15.117 6.15204 15.5855 6.72996 15.5855H7.03391C7.61123 15.5855 8.0798 15.1175 8.0798 14.5396C8.0798 13.9623 7.61182 13.4937 7.03391 13.4937H6.72996C6.15204 13.4937 5.68347 13.9623 5.68406 14.5396ZM2.75862 14.5396C2.75862 15.117 3.22659 15.5855 3.80451 15.5855H4.10846C4.68579 15.5855 5.15435 15.1175 5.15435 14.5396C5.15435 13.9623 4.68638 13.4937 4.10846 13.4937H3.80451C3.22659 13.4937 2.75862 13.9623 2.75862 14.5396ZM1.42759 19.0236C1.75388 19.6586 2.33826 20.0501 3.39062 20.0501H14.4198C14.4522 19.9984 14.4845 19.9496 14.5174 19.8926C14.6262 19.7144 14.7502 19.5181 14.8602 19.2888C14.8825 19.2453 14.9066 19.1982 14.9301 19.1524C12.8454 19.1412 10.776 19.1336 8.81822 19.1224C6.52713 19.1118 4.38948 19.0636 2.55755 19.0418C2.16541 19.0366 1.78974 19.0289 1.42759 19.0236ZM27.0299 20.501C27.2733 20.3458 27.435 20.076 27.435 19.7673C27.435 19.6915 27.4227 19.6198 27.4038 19.5498C27.3968 19.528 27.3915 19.5069 27.3844 19.4863C27.375 19.4657 27.3721 19.4428 27.3627 19.4222C28.2469 19.3058 28.9806 19.1765 29.5844 19.0424C29.5303 19.043 29.4809 19.0442 29.428 19.0454C28.6967 19.0548 27.9065 19.0665 27.0887 19.0818C25.8547 19.1006 24.5442 19.12 23.1674 19.1259C21.1567 19.1359 19.0267 19.1453 16.8838 19.1565C16.5857 19.1577 16.2894 19.1594 15.9913 19.1606C15.7638 19.1594 15.5375 19.1583 15.3088 19.1565C15.2423 19.2564 15.1759 19.354 15.1136 19.4463C14.976 19.6733 14.812 19.8514 14.6697 20.0131C14.6573 20.0272 14.6462 20.0384 14.6338 20.0525H15.6715C15.8532 20.0525 16.2065 20.0513 16.6786 20.0454C16.6874 20.0672 16.6909 20.0901 16.7003 20.1113C16.7097 20.1324 16.7233 20.153 16.7356 20.1748C16.7774 20.2529 16.8332 20.3217 16.8955 20.3829C16.5304 20.3805 16.1659 20.3782 15.8008 20.3752C13.8572 20.3876 11.9136 20.3993 10.0905 20.4111C8.26793 20.4217 6.56769 20.4699 5.10909 20.4916C3.65107 20.5157 2.43644 20.5663 1.58573 20.5869C0.735027 20.6204 0.25 20.6386 0.25 20.6386C0.25 20.6386 0.735615 20.6557 1.58573 20.6892C2.43644 20.7092 3.65107 20.7615 5.10909 20.7844C6.5671 20.8056 8.26793 20.8538 10.0905 20.865C11.9136 20.8773 13.8566 20.8879 15.8008 20.9008C17.7451 20.8885 19.6893 20.8773 21.5112 20.865C23.3337 20.8556 25.0328 20.8062 26.4926 20.7856C27.95 20.7627 29.167 20.7109 30.0165 20.6892C30.8661 20.6563 31.3517 20.6386 31.3517 20.6386C31.3517 20.6386 30.8661 20.6204 30.0165 20.5869C29.2746 20.5687 28.2516 20.5263 27.0299 20.501ZM16.2876 9.53297L1.01605 9.82693L16.2876 10.1209V9.53297ZM28.3392 11.1744L22.9516 11.4684L28.3392 11.7623V11.1744ZM21.4812 22.467V21.8791L4.23604 22.1731L21.4812 22.467Z" fill="#8B16FF"/>
</g>
</g>
<defs>
<clipPath id="clip0_1_175">
<rect width="32" height="32" fill="white" transform="translate(0.25)"/>
</clipPath>
</defs>
</svg>
