<svg width="34" height="34" viewBox="0 0 34 34" fill="none" xmlns="http://www.w3.org/2000/svg">
<path fill-rule="evenodd" clip-rule="evenodd" d="M28.6097 8.69558C29.5252 8.69558 30.2683 9.4386 30.2683 10.3541C30.2683 10.3541 30.2683 20.0615 30.2683 25.3141C30.2683 26.626 29.7475 27.8815 28.8204 28.8087C27.8933 29.7358 26.6377 30.2566 25.3258 30.2566C20.9075 30.2566 13.0925 30.2566 8.67413 30.2566C7.36223 30.2566 6.10671 29.7358 5.17959 28.8087C4.25247 27.8815 3.73169 26.626 3.73169 25.3141C3.73169 20.8958 3.73169 13.0808 3.73169 8.66241C3.73169 7.35051 4.25247 6.09499 5.17959 5.16787C6.10671 4.24075 7.36223 3.71997 8.67413 3.71997H23.6341C24.5496 3.71997 25.2927 4.463 25.2927 5.37851C25.2927 7.20953 26.7787 8.69558 28.6097 8.69558ZM28.6097 3.71997C29.5252 3.71997 30.2683 4.463 30.2683 5.37851C30.2683 6.29402 29.5252 7.03704 28.6097 7.03704C27.6942 7.03704 26.9512 6.29402 26.9512 5.37851C26.9512 4.463 27.6942 3.71997 28.6097 3.71997Z" fill="url(#paint0_linear_12_34)"/>
<path fill-rule="evenodd" clip-rule="evenodd" d="M16.9998 20.3171H8.70712C7.79161 20.3171 7.04858 21.0601 7.04858 21.9756C7.04858 22.8911 7.79161 23.6342 8.70712 23.6342H16.9998C16.9998 24.5497 17.7428 25.2927 18.6583 25.2927C19.5739 25.2927 20.3169 24.5497 20.3169 23.6342H21.9754C22.8909 23.6342 23.6339 22.8911 23.6339 21.9756C23.6339 21.0601 22.8909 20.3171 21.9754 20.3171H20.3169C20.3169 19.4016 19.5739 18.6586 18.6583 18.6586C17.7428 18.6586 16.9998 19.4016 16.9998 20.3171ZM10.3657 13.683H8.70712C7.79161 13.683 7.04858 14.426 7.04858 15.3415C7.04858 16.257 7.79161 17 8.70712 17H10.3657C10.3657 17.9155 11.1087 18.6586 12.0242 18.6586C12.9397 18.6586 13.6827 17.9155 13.6827 17H21.9754C22.8909 17 23.6339 16.257 23.6339 15.3415C23.6339 14.426 22.8909 13.683 21.9754 13.683H13.6827C13.6827 12.7674 12.9397 12.0244 12.0242 12.0244C11.1087 12.0244 10.3657 12.7674 10.3657 13.683Z" fill="#D69F1F"/>
<path fill-rule="evenodd" clip-rule="evenodd" d="M10.3656 15.3415H23.6338C24.5493 15.3415 25.2924 14.5985 25.2924 13.683C25.2924 12.7674 24.5493 12.0244 23.6338 12.0244H10.3656C9.45005 12.0244 8.70703 12.7674 8.70703 13.683C8.70703 14.5985 9.45005 15.3415 10.3656 15.3415Z" fill="url(#paint1_linear_12_34)"/>
<path fill-rule="evenodd" clip-rule="evenodd" d="M10.3656 21.9755H23.6338C24.5493 21.9755 25.2924 21.2325 25.2924 20.317C25.2924 19.4015 24.5493 18.6584 23.6338 18.6584H10.3656C9.45005 18.6584 8.70703 19.4015 8.70703 20.317C8.70703 21.2325 9.45005 21.9755 10.3656 21.9755Z" fill="url(#paint2_linear_12_34)"/>
<path fill-rule="evenodd" clip-rule="evenodd" d="M12.0244 12.0243V15.3413C12.0244 16.2568 12.7674 16.9999 13.683 16.9999C14.5985 16.9999 15.3415 16.2568 15.3415 15.3413V12.0243C15.3415 11.1087 14.5985 10.3657 13.683 10.3657C12.7674 10.3657 12.0244 11.1087 12.0244 12.0243Z" fill="url(#paint3_linear_12_34)"/>
<path fill-rule="evenodd" clip-rule="evenodd" d="M21.9755 21.9756V18.6585C21.9755 17.743 21.2325 17 20.317 17C19.4015 17 18.6584 17.743 18.6584 18.6585V21.9756C18.6584 22.8911 19.4015 23.6341 20.317 23.6341C21.2325 23.6341 21.9755 22.8911 21.9755 21.9756Z" fill="url(#paint4_linear_12_34)"/>
<defs>
<linearGradient id="paint0_linear_12_34" x1="5.39023" y1="28.6096" x2="30.2683" y2="5.39012" gradientUnits="userSpaceOnUse">
<stop stop-color="#FFAD21"/>
<stop offset="1" stop-color="#FBD82C"/>
</linearGradient>
<linearGradient id="paint1_linear_12_34" x1="8.70734" y1="15.3415" x2="25.2927" y2="12.0244" gradientUnits="userSpaceOnUse">
<stop stop-color="#FBD82C"/>
<stop offset="1" stop-color="white"/>
</linearGradient>
<linearGradient id="paint2_linear_12_34" x1="10.3659" y1="21.9755" x2="25.2927" y2="18.6585" gradientUnits="userSpaceOnUse">
<stop stop-color="#FBD82C"/>
<stop offset="1" stop-color="white"/>
</linearGradient>
<linearGradient id="paint3_linear_12_34" x1="12.0244" y1="16.9999" x2="15.3415" y2="10.3657" gradientUnits="userSpaceOnUse">
<stop stop-color="#FBD82C"/>
<stop offset="1" stop-color="white"/>
</linearGradient>
<linearGradient id="paint4_linear_12_34" x1="18.6584" y1="23.6341" x2="21.9755" y2="17" gradientUnits="userSpaceOnUse">
<stop stop-color="#FBD82C"/>
<stop offset="1" stop-color="white"/>
</linearGradient>
</defs>
</svg>
