<svg width="32" height="32" viewBox="0 0 32 32" fill="none" xmlns="http://www.w3.org/2000/svg">
<path fill-rule="evenodd" clip-rule="evenodd" d="M5 25.874C4.14138 25.652 3.38084 25.151 2.83783 24.4498C2.29482 23.7486 2.00012 22.8869 2 22V11C2 9.93913 2.42143 8.92172 3.17157 8.17157C3.92172 7.42143 4.93913 7 6 7H18C19.0609 7 20.0783 7.42143 20.8284 8.17157C21.5786 8.92172 22 9.93913 22 11V22C22.0002 22.5253 21.8967 23.0454 21.6956 23.5307C21.4945 24.016 21.1997 24.4568 20.828 24.828C20.4568 25.1997 20.016 25.4945 19.5307 25.6956C19.0454 25.8967 18.5253 26.0002 18 26H11.351L6.625 29.781C6.47791 29.8988 6.30053 29.9726 6.11331 29.9939C5.92609 30.0153 5.73665 29.9833 5.56682 29.9017C5.39698 29.8201 5.25367 29.6921 5.15338 29.5326C5.0531 29.373 4.99993 29.1884 5 29V25.874Z" fill="url(#paint0_linear_12_24)"/>
<path fill-rule="evenodd" clip-rule="evenodd" d="M27 20.874V24C27.0005 24.1886 26.9475 24.3735 26.8473 24.5332C26.7471 24.693 26.6037 24.8212 26.4338 24.9029C26.2638 24.9846 26.0741 25.0165 25.8868 24.9949C25.6994 24.9733 25.522 24.8992 25.375 24.781L20.649 21H10C8.93913 21 7.92172 20.5786 7.17157 19.8284C6.42143 19.0783 6 18.0609 6 17V6C6 4.93913 6.42143 3.92172 7.17157 3.17157C7.92172 2.42143 8.93913 2 10 2H26C27.0609 2 28.0783 2.42143 28.8284 3.17157C29.5786 3.92172 30 4.93913 30 6V17C29.9999 17.8869 29.7052 18.7486 29.1622 19.4498C28.6192 20.151 27.8586 20.652 27 20.874Z" fill="url(#paint1_linear_12_24)"/>
<path fill-rule="evenodd" clip-rule="evenodd" d="M17 11C16.7373 11.0001 16.4772 11.0519 16.2345 11.1525C15.9918 11.2531 15.7713 11.4005 15.5856 11.5863C15.3999 11.7721 15.2526 11.9927 15.1521 12.2354C15.0516 12.4781 14.9999 12.7383 15 13.001C15.0001 13.2637 15.0519 13.5238 15.1525 13.7665C15.2531 14.0092 15.4005 14.2297 15.5863 14.4154C15.7721 14.6011 15.9927 14.7484 16.2354 14.8489C16.4781 14.9494 16.7383 15.0011 17.001 15.001C17.5316 15.0009 18.0403 14.79 18.4154 14.4147C18.7905 14.0395 19.0011 13.5306 19.001 13C19.0009 12.4694 18.79 11.9607 18.4147 11.5856C18.0395 11.2105 17.5306 10.9999 17 11ZM11 11C10.7373 11.0001 10.4772 11.0519 10.2345 11.1525C9.99179 11.2531 9.7713 11.4005 9.58558 11.5863C9.39986 11.7721 9.25256 11.9927 9.15209 12.2354C9.05161 12.4781 8.99993 12.7383 9 13.001C9.00007 13.2637 9.05188 13.5238 9.15247 13.7665C9.25307 14.0092 9.40048 14.2297 9.58629 14.4154C9.7721 14.6011 9.99267 14.7484 10.2354 14.8489C10.4781 14.9494 10.7383 15.0011 11.001 15.001C11.5316 15.0009 12.0403 14.79 12.4154 14.4147C12.7905 14.0395 13.0011 13.5306 13.001 13C13.0009 12.4694 12.79 11.9607 12.4147 11.5856C12.0395 11.2105 11.5306 10.9999 11 11ZM23 11C22.7373 11.0001 22.4772 11.0519 22.2345 11.1525C21.9918 11.2531 21.7713 11.4005 21.5856 11.5863C21.3999 11.7721 21.2526 11.9927 21.1521 12.2354C21.0516 12.4781 20.9999 12.7383 21 13.001C21.0001 13.2637 21.0519 13.5238 21.1525 13.7665C21.2531 14.0092 21.4005 14.2297 21.5863 14.4154C21.7721 14.6011 21.9927 14.7484 22.2354 14.8489C22.4781 14.9494 22.7383 15.0011 23.001 15.001C23.5316 15.0009 24.0403 14.79 24.4154 14.4147C24.7905 14.0395 25.0011 13.5306 25.001 13C25.0009 12.4694 24.79 11.9607 24.4147 11.5856C24.0395 11.2105 23.5306 10.9999 23 11Z" fill="black" fill-opacity="0.1"/>
<path fill-rule="evenodd" clip-rule="evenodd" d="M16 12C16 12.5304 16.2107 13.0391 16.5858 13.4142C16.9609 13.7893 17.4696 14 18 14C18.5304 14 19.0391 13.7893 19.4142 13.4142C19.7893 13.0391 20 12.5304 20 12C20 11.4696 19.7893 10.9609 19.4142 10.5858C19.0391 10.2107 18.5304 10 18 10C17.4696 10 16.9609 10.2107 16.5858 10.5858C16.2107 10.9609 16 11.4696 16 12Z" fill="url(#paint2_linear_12_24)"/>
<path fill-rule="evenodd" clip-rule="evenodd" d="M10 12C10 12.5304 10.2107 13.0391 10.5858 13.4142C10.9609 13.7893 11.4696 14 12 14C12.5304 14 13.0391 13.7893 13.4142 13.4142C13.7893 13.0391 14 12.5304 14 12C14 11.4696 13.7893 10.9609 13.4142 10.5858C13.0391 10.2107 12.5304 10 12 10C11.4696 10 10.9609 10.2107 10.5858 10.5858C10.2107 10.9609 10 11.4696 10 12Z" fill="url(#paint3_linear_12_24)"/>
<path fill-rule="evenodd" clip-rule="evenodd" d="M22 12C22 12.5304 22.2107 13.0391 22.5858 13.4142C22.9609 13.7893 23.4696 14 24 14C24.5304 14 25.0391 13.7893 25.4142 13.4142C25.7893 13.0391 26 12.5304 26 12C26 11.4696 25.7893 10.9609 25.4142 10.5858C25.0391 10.2107 24.5304 10 24 10C23.4696 10 22.9609 10.2107 22.5858 10.5858C22.2107 10.9609 22 11.4696 22 12Z" fill="url(#paint4_linear_12_24)"/>
<defs>
<linearGradient id="paint0_linear_12_24" x1="4" y1="24" x2="21" y2="9" gradientUnits="userSpaceOnUse">
<stop stop-color="#7F3AF9"/>
<stop offset="1" stop-color="#B560FF"/>
</linearGradient>
<linearGradient id="paint1_linear_12_24" x1="8" y1="19" x2="27" y2="3" gradientUnits="userSpaceOnUse">
<stop stop-color="#18AEFA"/>
<stop offset="1" stop-color="#83E1FF"/>
</linearGradient>
<linearGradient id="paint2_linear_12_24" x1="17" y1="14" x2="19" y2="11" gradientUnits="userSpaceOnUse">
<stop stop-color="#82E3FF"/>
<stop offset="1" stop-color="white"/>
</linearGradient>
<linearGradient id="paint3_linear_12_24" x1="11" y1="14" x2="13" y2="11" gradientUnits="userSpaceOnUse">
<stop stop-color="#82E3FF"/>
<stop offset="1" stop-color="white"/>
</linearGradient>
<linearGradient id="paint4_linear_12_24" x1="23" y1="14" x2="25" y2="11" gradientUnits="userSpaceOnUse">
<stop stop-color="#82E3FF"/>
<stop offset="1" stop-color="white"/>
</linearGradient>
</defs>
</svg>
