<svg width="34" height="34" viewBox="0 0 34 34" fill="none" xmlns="http://www.w3.org/2000/svg">
<path fill-rule="evenodd" clip-rule="evenodd" d="M26.9512 30.2683C27.8667 30.2683 28.6097 29.5252 28.6097 28.6097C28.6097 27.6942 27.8667 26.9512 26.9512 26.9512C26.0357 26.9512 25.2927 27.6942 25.2927 28.6097C25.2927 29.5252 26.0357 30.2683 26.9512 30.2683ZM10.3692 30.2683H21.9756C22.8911 30.2683 23.6341 29.5252 23.6341 28.6097C23.6341 26.7787 25.1202 25.2927 26.9512 25.2927C27.2033 25.2927 27.4405 25.3739 27.6859 25.3739C28.6097 25.3739 28.9978 24.6856 29.0857 23.926C29.0857 23.926 29.8055 17.7447 30.1173 15.0761C30.2069 14.3015 29.9614 13.5237 29.4423 12.9415C28.9232 12.3577 28.1802 12.0244 27.399 12.0244H27.3973C26.6726 12.0244 25.976 12.313 25.4635 12.8254L22.581 15.708L20.813 11.288C20.191 9.72896 18.6801 8.7073 17.0016 8.7073H16.9983C15.3199 8.7073 13.809 9.72896 13.187 11.288L11.419 15.708L8.53647 12.8254C8.02398 12.313 7.3274 12.0244 6.60262 12.0244H6.59432C5.81647 12.0244 5.0751 12.3561 4.55598 12.9366C4.03686 13.5154 3.78808 14.2899 3.87432 15.0628L5.03364 25.4933C5.33549 28.2117 7.63423 30.2683 10.3692 30.2683ZM5.39023 10.3658H7.04876C7.96427 10.3658 8.7073 9.62281 8.7073 8.7073C8.7073 7.79179 7.96427 7.04876 7.04876 7.04876H5.39023C4.47471 7.04876 3.73169 7.79179 3.73169 8.7073C3.73169 9.62281 4.47471 10.3658 5.39023 10.3658ZM28.6097 7.04876H26.9512C26.0357 7.04876 25.2927 7.79179 25.2927 8.7073C25.2927 9.62281 26.0357 10.3658 26.9512 10.3658H28.6097C29.5252 10.3658 30.2683 9.62281 30.2683 8.7073C30.2683 7.79179 29.5252 7.04876 28.6097 7.04876ZM15.3414 7.04876H18.6585C19.574 7.04876 20.3171 6.30574 20.3171 5.39023C20.3171 4.47471 19.574 3.73169 18.6585 3.73169H15.3414C14.4259 3.73169 13.6829 4.47471 13.6829 5.39023C13.6829 6.30574 14.4259 7.04876 15.3414 7.04876Z" fill="url(#paint0_linear_12_44)"/>
<path fill-rule="evenodd" clip-rule="evenodd" d="M13.6829 25.2926V30.2683H16.9999V25.2926C16.9999 24.3771 16.2569 23.6345 15.3414 23.6345C14.4259 23.6345 13.6829 24.3771 13.6829 25.2926Z" fill="#D7424E"/>
<path fill-rule="evenodd" clip-rule="evenodd" d="M15.3413 23.634V28.6096C15.3413 29.5251 16.0843 30.2677 16.9998 30.2677C17.9154 30.2677 18.6584 29.5251 18.6584 28.6096V23.634C18.6584 22.7184 17.9154 21.9758 16.9998 21.9758C16.0843 21.9758 15.3413 22.7184 15.3413 23.634Z" fill="url(#paint1_linear_12_44)"/>
<defs>
<linearGradient id="paint0_linear_12_44" x1="7.04876" y1="28.6097" x2="28.6097" y2="7.04876" gradientUnits="userSpaceOnUse">
<stop stop-color="#FF405B"/>
<stop offset="1" stop-color="#FF8860"/>
</linearGradient>
<linearGradient id="paint1_linear_12_44" x1="15.3413" y1="30.2681" x2="18.6584" y2="21.9754" gradientUnits="userSpaceOnUse">
<stop stop-color="#FF8860"/>
<stop offset="1" stop-color="white"/>
</linearGradient>
</defs>
</svg>
