<svg width="34" height="34" viewBox="0 0 34 34" fill="none" xmlns="http://www.w3.org/2000/svg">
<path fill-rule="evenodd" clip-rule="evenodd" d="M30.2683 12.0409C30.2683 8.36721 27.2912 5.39014 23.6175 5.39014H10.3658C9.45032 5.39014 8.7073 6.13316 8.7073 7.04867C8.7073 8.8797 7.22125 10.3657 5.39023 10.3657C4.47471 10.3657 3.73169 11.1088 3.73169 12.0243V21.9589C3.73169 25.6326 6.70876 28.6097 10.3824 28.6097C14.2933 28.6097 19.7067 28.6097 23.6175 28.6097C27.2912 28.6097 30.2683 25.6326 30.2683 21.9589C30.2683 18.9271 30.2683 12.0409 30.2683 12.0409ZM5.39023 5.39014C4.47471 5.39014 3.73169 6.13316 3.73169 7.04867C3.73169 7.96419 4.47471 8.70721 5.39023 8.70721C6.30574 8.70721 7.04876 7.96419 7.04876 7.04867C7.04876 6.13316 6.30574 5.39014 5.39023 5.39014Z" fill="url(#paint0_linear_12_51)"/>
<path fill-rule="evenodd" clip-rule="evenodd" d="M10.0706 18.2652L7.5347 20.8027C6.88787 21.4496 6.88787 22.5011 7.5347 23.1479C8.18153 23.7947 9.23304 23.7947 9.87987 23.1479L12.1902 20.8376C13.0858 21.5656 14.2136 21.9753 15.3912 21.9753H15.3995C16.5488 21.9753 17.6534 21.5856 18.5407 20.8856L20.803 23.1479C21.4498 23.7947 22.5013 23.7947 23.1482 23.1479C23.795 22.5011 23.795 21.4496 23.1482 20.8027L20.7516 18.4061C20.7516 18.4061 17.5224 18.6582 17 18.6582H15.3928C14.8389 18.6582 14.3165 18.3978 13.9847 17.955L10.0341 12.6875C9.48514 11.9544 8.44523 11.8068 7.71216 12.3558C6.97909 12.9048 6.83148 13.9447 7.38045 14.6777L10.0706 18.2652Z" fill="#79D2AC"/>
<path fill-rule="evenodd" clip-rule="evenodd" d="M11.729 16.6068L9.19314 19.1444C8.54632 19.7912 8.54632 20.8427 9.19314 21.4896C9.83997 22.1364 10.8915 22.1364 11.5383 21.4896L13.8487 19.1792C14.7443 19.9073 15.8721 20.317 17.0496 20.317H17.0579C18.2073 20.317 19.3119 19.9272 20.1992 19.2273L22.4614 21.4896C23.1083 22.1364 24.1598 22.1364 24.8066 21.4896C25.4534 20.8427 25.4534 19.7912 24.8066 19.1444L22.41 16.7478L28.2249 9.76868C28.812 9.06546 28.7158 8.01892 28.0126 7.43346C27.3093 6.84634 26.2628 6.94253 25.6773 7.64575L18.4096 16.3663C18.0746 16.7677 17.5804 16.9999 17.0579 16.9999H17.0513C16.4973 16.9999 15.9749 16.7395 15.6432 16.2967L11.6926 11.0292C11.1436 10.2961 10.1037 10.1485 9.37061 10.6975C8.63753 11.2464 8.48992 12.2863 9.0389 13.0194L11.729 16.6068Z" fill="url(#paint1_linear_12_51)"/>
<defs>
<linearGradient id="paint0_linear_12_51" x1="5.39023" y1="26.9511" x2="28.6097" y2="7.04867" gradientUnits="userSpaceOnUse">
<stop stop-color="#62E8AF"/>
<stop offset="1" stop-color="#B8FCE0"/>
</linearGradient>
<linearGradient id="paint1_linear_12_51" x1="10.3657" y1="20.317" x2="26.9511" y2="8.70721" gradientUnits="userSpaceOnUse">
<stop stop-color="#B8FCE0"/>
<stop offset="1" stop-color="white"/>
</linearGradient>
</defs>
</svg>
