<svg width="32" height="32" viewBox="0 0 32 32" fill="none" xmlns="http://www.w3.org/2000/svg">
<path fill-rule="evenodd" clip-rule="evenodd" d="M19.9999 23.0004L18.9999 20.001H12.9999L11.9999 23.0004L11.4899 26.5767C11.3649 27.4374 11.6224 28.3096 12.1924 28.9666C12.7624 29.6236 13.5899 30.0008 14.4599 30.0008H17.5399C18.4099 30.0008 19.2374 29.6236 19.8074 28.9666C20.3774 28.3096 20.6349 27.4374 20.5099 26.5767L19.9999 23.0004Z" fill="url(#paint0_linear_12_12)"/>
<path fill-rule="evenodd" clip-rule="evenodd" d="M30 4.99942C30 3.34424 28.656 2.00024 27.0005 2.00024H4.9995C3.344 2.00024 2 3.34424 2 4.99942V20.0011C2 21.6562 3.34225 21.9999 4.9995 21.9999H27.0005C28.656 21.9999 30 21.6562 30 20.0011V4.99942Z" fill="url(#paint1_linear_12_12)"/>
<path fill-rule="evenodd" clip-rule="evenodd" d="M29.9997 18.9995C29.9997 17.8955 29.1037 17 27.9999 17H3.99954C2.89575 17 1.99976 17.8955 1.99976 18.9995V21.0005C1.99976 22.1045 2.89575 23 3.99954 23H27.9999C29.1037 23 29.9997 22.1045 29.9997 21.0005V18.9995Z" fill="url(#paint2_linear_12_12)"/>
<path fill-rule="evenodd" clip-rule="evenodd" d="M23 28C23 26.895 22.1047 26 21.0002 26H10.9998C9.89526 26 9 26.895 9 28V29C9 29.552 9.448 30 9.99989 30H22.0001C22.552 30 23 29.552 23 29V28Z" fill="url(#paint3_linear_12_12)"/>
<path fill-rule="evenodd" clip-rule="evenodd" d="M16 21C16 21.2652 15.8946 21.5196 15.7071 21.7071C15.5196 21.8946 15.2652 22 15 22C14.7348 22 14.4804 21.8946 14.2929 21.7071C14.1054 21.5196 14 21.2652 14 21C14 20.7348 14.1054 20.4804 14.2929 20.2929C14.4804 20.1054 14.7348 20 15 20C15.2652 20 15.5196 20.1054 15.7071 20.2929C15.8946 20.4804 16 20.7348 16 21Z" fill="black" fill-opacity="0.1"/>
<path fill-rule="evenodd" clip-rule="evenodd" d="M17 20C17 20.2652 16.8946 20.5196 16.7071 20.7071C16.5196 20.8946 16.2652 21 16 21C15.7348 21 15.4804 20.8946 15.2929 20.7071C15.1054 20.5196 15 20.2652 15 20C15 19.7348 15.1054 19.4804 15.2929 19.2929C15.4804 19.1054 15.7348 19 16 19C16.2652 19 16.5196 19.1054 16.7071 19.2929C16.8946 19.4804 17 19.7348 17 20Z" fill="url(#paint4_linear_12_12)"/>
<path fill-rule="evenodd" clip-rule="evenodd" d="M18.2929 13.2929L16.2929 15.2929C16.1108 15.4815 16.01 15.7341 16.0122 15.9963C16.0145 16.2585 16.1197 16.5093 16.3051 16.6947C16.4905 16.8801 16.7413 16.9853 17.0035 16.9876C17.2657 16.9899 17.5183 16.8891 17.7069 16.7069L19.7069 14.7069C19.8891 14.5183 19.9899 14.2657 19.9876 14.0035C19.9853 13.7413 19.8801 13.4905 19.6947 13.3051C19.5093 13.1197 19.2585 13.0145 18.9963 13.0122C18.7341 13.01 18.4815 13.1108 18.2929 13.2929ZM17.2929 8.29292L11.2929 14.2929C11.1108 14.4815 11.01 14.7341 11.0122 14.9963C11.0145 15.2585 11.1197 15.5093 11.3051 15.6947C11.4905 15.8801 11.7413 15.9853 12.0035 15.9876C12.2657 15.9899 12.5183 15.8891 12.7069 15.7069L18.7069 9.70692C18.8891 9.51832 18.9899 9.26572 18.9876 9.00352C18.9853 8.74132 18.8801 8.49051 18.6947 8.3051C18.5093 8.11969 18.2585 8.01452 17.9963 8.01225C17.7341 8.00997 17.4815 8.11076 17.2929 8.29292ZM12.2929 7.29292L10.2929 9.29292C10.1108 9.48152 10.01 9.73412 10.0122 9.99632C10.0145 10.2585 10.1197 10.5093 10.3051 10.6947C10.4905 10.8801 10.7413 10.9853 11.0035 10.9876C11.2657 10.9899 11.5183 10.8891 11.7069 10.7069L13.7069 8.70692C13.8891 8.51832 13.9899 8.26572 13.9876 8.00352C13.9853 7.74132 13.8801 7.49051 13.6947 7.3051C13.5093 7.11969 13.2585 7.01452 12.9963 7.01224C12.7341 7.00997 12.4815 7.11076 12.2929 7.29292Z" fill="black" fill-opacity="0.1"/>
<path fill-rule="evenodd" clip-rule="evenodd" d="M19.2929 11.2929L17.2929 13.2929C17.1108 13.4815 17.01 13.7341 17.0122 13.9963C17.0145 14.2585 17.1197 14.5093 17.3051 14.6947C17.4905 14.8801 17.7413 14.9853 18.0035 14.9876C18.2657 14.9899 18.5183 14.8891 18.7069 14.7069L20.7069 12.7069C20.8891 12.5183 20.9899 12.2657 20.9876 12.0035C20.9853 11.7413 20.8801 11.4905 20.6947 11.3051C20.5093 11.1197 20.2585 11.0145 19.9963 11.0122C19.7341 11.01 19.4815 11.1108 19.2929 11.2929ZM18.2929 6.29292L12.2929 12.2929C12.1108 12.4815 12.01 12.7341 12.0122 12.9963C12.0145 13.2585 12.1197 13.5093 12.3051 13.6947C12.4905 13.8801 12.7413 13.9853 13.0035 13.9876C13.2657 13.9899 13.5183 13.8891 13.7069 13.7069L19.7069 7.70692C19.8891 7.51832 19.9899 7.26571 19.9876 7.00352C19.9853 6.74132 19.8801 6.49051 19.6947 6.3051C19.5093 6.11969 19.2585 6.01452 18.9963 6.01224C18.7341 6.00997 18.4815 6.11076 18.2929 6.29292ZM13.2929 5.29292L11.2929 7.29292C11.1108 7.48152 11.01 7.73412 11.0122 7.99632C11.0145 8.25852 11.1197 8.50933 11.3051 8.69474C11.4905 8.88015 11.7413 8.98531 12.0035 8.98759C12.2657 8.98987 12.5183 8.88908 12.7069 8.70692L14.7069 6.70692C14.8891 6.51832 14.9899 6.26571 14.9876 6.00352C14.9853 5.74132 14.8801 5.49051 14.6947 5.3051C14.5093 5.11969 14.2585 5.01452 13.9963 5.01224C13.7341 5.00997 13.4815 5.11076 13.2929 5.29292Z" fill="url(#paint5_linear_12_12)"/>
<defs>
<linearGradient id="paint0_linear_12_12" x1="15.9999" y1="26.0007" x2="15.9999" y2="23.0007" gradientUnits="userSpaceOnUse">
<stop stop-color="#2DB9FF"/>
<stop offset="1" stop-color="#93E4FF"/>
</linearGradient>
<linearGradient id="paint1_linear_12_12" x1="16" y1="17" x2="16" y2="2.99998" gradientUnits="userSpaceOnUse">
<stop stop-color="#5AC8FF"/>
<stop offset="1" stop-color="#81E0FF"/>
</linearGradient>
<linearGradient id="paint2_linear_12_12" x1="15.9997" y1="23" x2="15.9997" y2="17" gradientUnits="userSpaceOnUse">
<stop stop-color="#54CCC9"/>
<stop offset="1" stop-color="#A1FFD8"/>
</linearGradient>
<linearGradient id="paint3_linear_12_12" x1="16.9999" y1="30" x2="16.9999" y2="26" gradientUnits="userSpaceOnUse">
<stop stop-color="#54CCC9"/>
<stop offset="1" stop-color="#A1FFD8"/>
</linearGradient>
<linearGradient id="paint4_linear_12_12" x1="16" y1="21" x2="16" y2="19" gradientUnits="userSpaceOnUse">
<stop stop-color="#A1FFD8"/>
<stop offset="1" stop-color="white"/>
</linearGradient>
<linearGradient id="paint5_linear_12_12" x1="12.9999" y1="12.9999" x2="18.9999" y2="6.99992" gradientUnits="userSpaceOnUse">
<stop stop-color="#83D4FC"/>
<stop offset="1" stop-color="white"/>
</linearGradient>
</defs>
</svg>
