<svg width="34" height="34" viewBox="0 0 34 34" fill="none" xmlns="http://www.w3.org/2000/svg">
<path fill-rule="evenodd" clip-rule="evenodd" d="M30.2 28.55C30.2 27.6392 29.4608 26.9 28.55 26.9C27.6392 26.9 26.9 27.6392 26.9 28.55C26.9 29.4608 27.6392 30.2 28.55 30.2C29.4608 30.2 30.2 29.4608 30.2 28.55ZM25.25 28.55C25.25 26.7284 26.7284 25.25 28.55 25.25C29.4608 25.25 30.2 24.5108 30.2 23.6C30.2 23.6 30.2 15.7064 30.2 10.3307C30.2 6.72385 27.2762 3.80005 23.6693 3.80005H10.3307C6.72385 3.80005 3.80005 6.72385 3.80005 10.3307V23.6693C3.80005 27.2762 6.72385 30.2 10.3307 30.2C15.7064 30.2 23.6 30.2 23.6 30.2C24.5108 30.2 25.25 29.4608 25.25 28.55Z" fill="url(#paint0_linear_12_58)"/>
<path fill-rule="evenodd" clip-rule="evenodd" d="M12.0499 26.9001H18.6499C19.5607 26.9001 20.2999 26.1609 20.2999 25.2501C20.2999 24.3393 19.5607 23.6001 18.6499 23.6001H12.0499C11.1391 23.6001 10.3999 24.3393 10.3999 25.2501C10.3999 26.1609 11.1391 26.9001 12.0499 26.9001ZM13.6999 16.0332L13.2165 16.5166C12.573 17.1601 11.5269 17.1601 10.8834 16.5166C10.2399 15.8731 10.2399 14.827 10.8834 14.1835L14.1834 10.8835C14.8269 10.2384 15.873 10.2384 16.5165 10.8835L19.8165 14.1835C20.46 14.827 20.46 15.8731 19.8165 16.5166C19.173 17.1601 18.1269 17.1601 17.4834 16.5166L16.9999 16.0332V20.3001C16.9999 21.2109 16.2607 21.9501 15.3499 21.9501C14.4391 21.9501 13.6999 21.2109 13.6999 20.3001V16.0332Z" fill="#354BD9"/>
<path fill-rule="evenodd" clip-rule="evenodd" d="M13.7 25.25H20.3C21.2108 25.25 21.95 24.5108 21.95 23.6C21.95 22.6892 21.2108 21.95 20.3 21.95H13.7C12.7892 21.95 12.05 22.6892 12.05 23.6C12.05 24.5108 12.7892 25.25 13.7 25.25Z" fill="url(#paint1_linear_12_58)"/>
<path fill-rule="evenodd" clip-rule="evenodd" d="M15.35 14.383L14.8665 14.8665C14.223 15.51 13.1769 15.51 12.5334 14.8665C11.8899 14.223 11.8899 13.1769 12.5334 12.5334L15.8334 9.23337C16.4769 8.58822 17.523 8.58822 18.1665 9.23337L21.4665 12.5334C22.11 13.1769 22.11 14.223 21.4665 14.8665C20.823 15.51 19.7769 15.51 19.1334 14.8665L18.65 14.383V18.6499C18.65 19.5607 17.9108 20.2999 17 20.2999C16.0892 20.2999 15.35 19.5607 15.35 18.6499V14.383Z" fill="url(#paint2_linear_12_58)"/>
<defs>
<linearGradient id="paint0_linear_12_58" x1="5.45005" y1="28.55" x2="26.9" y2="7.10005" gradientUnits="userSpaceOnUse">
<stop stop-color="#2542FA"/>
<stop offset="1" stop-color="#98A7FF"/>
</linearGradient>
<linearGradient id="paint1_linear_12_58" x1="12.05" y1="25.25" x2="21.95" y2="21.95" gradientUnits="userSpaceOnUse">
<stop stop-color="#98A7FF"/>
<stop offset="1" stop-color="white"/>
</linearGradient>
<linearGradient id="paint2_linear_12_58" x1="18.65" y1="10.3999" x2="15.35" y2="20.2999" gradientUnits="userSpaceOnUse">
<stop stop-color="white"/>
<stop offset="1" stop-color="#98A7FF"/>
</linearGradient>
</defs>
</svg>
