<svg width="28" height="28" viewBox="0 0 28 28" fill="none" xmlns="http://www.w3.org/2000/svg">
<path fill-rule="evenodd" clip-rule="evenodd" d="M27.2 25.55C27.2 24.6392 26.4608 23.9 25.55 23.9C24.6392 23.9 23.9 24.6392 23.9 25.55C23.9 26.4608 24.6392 27.2 25.55 27.2C26.4608 27.2 27.2 26.4608 27.2 25.55ZM22.25 25.55C22.25 23.7284 23.7284 22.25 25.55 22.25C26.4608 22.25 27.2 21.5108 27.2 20.6C27.2 20.6 27.2 12.7064 27.2 7.33075C27.2 3.72385 24.2762 0.800049 20.6693 0.800049H7.33075C3.72385 0.800049 0.800049 3.72385 0.800049 7.33075V20.6693C0.800049 24.2762 3.72385 27.2 7.33075 27.2C12.7064 27.2 20.6 27.2 20.6 27.2C21.5108 27.2 22.25 26.4608 22.25 25.55Z" fill="url(#paint0_linear_12_59)"/>
<defs>
<linearGradient id="paint0_linear_12_59" x1="2.45005" y1="25.55" x2="23.9" y2="4.10005" gradientUnits="userSpaceOnUse">
<stop stop-color="#2542FA"/>
<stop offset="1" stop-color="#98A7FF"/>
</linearGradient>
</defs>
</svg>
